<svg xmlns="http://www.w3.org/2000/svg" width="288.145" height="40.974" viewBox="0 0 288.145 40.974"><defs><style>.a{fill:#435282;}</style></defs><g transform="translate(-738.297 -1808.607)"><path class="a" d="M761.062,1842.826a13.423,13.423,0,1,1-.351-19.618l-4.072,5.446a6.382,6.382,0,0,0-4.875-2.112,6.487,6.487,0,0,0-4.722,1.93,6.309,6.309,0,0,0-1.961,4.68,6.679,6.679,0,0,0,6.684,6.658,6.242,6.242,0,0,0,4.975-2.31Z" transform="translate(0 2.516)"/><path class="a" d="M791.971,1845.839h-7.214l-1.423-3.922a13.416,13.416,0,0,1-23.675-8.691,13.318,13.318,0,0,1,8.843-12.615,13.567,13.567,0,0,1,4.625-.854,13.038,13.038,0,0,1,7.714,2.439,13.271,13.271,0,0,1,4.9,6.457ZM779.759,1833.2a6.3,6.3,0,0,0-2.864-5.5,6.506,6.506,0,0,0-3.82-1.162,6.171,6.171,0,0,0-5.426,2.825,6.667,6.667,0,0,0-1.207,3.835,6.248,6.248,0,0,0,2.864,5.446,6.609,6.609,0,0,0,8.494-.729A6.391,6.391,0,0,0,779.759,1833.2Z" transform="translate(4.821 2.516)"/><path class="a" d="M815.825,1845.839h-6.784v-12.681a6.351,6.351,0,0,0-1.967-4.661,6.433,6.433,0,0,0-4.691-1.956,6.526,6.526,0,0,0-4.743,1.933,6.318,6.318,0,0,0-1.966,4.685v12.681h-6.783v-12.691a12.873,12.873,0,0,1,3.919-9.5,13.668,13.668,0,0,1,19.1,0,12.875,12.875,0,0,1,3.92,9.5Z" transform="translate(11.418 2.516)"/><path class="a" d="M846.049,1845.839h-7.214l-1.423-3.922a13.416,13.416,0,0,1-23.675-8.691,13.318,13.318,0,0,1,8.843-12.615,13.567,13.567,0,0,1,4.624-.854,13.038,13.038,0,0,1,7.714,2.439,13.271,13.271,0,0,1,4.9,6.457ZM833.837,1833.2a6.293,6.293,0,0,0-2.864-5.5,6.5,6.5,0,0,0-3.819-1.162,6.172,6.172,0,0,0-5.427,2.825,6.666,6.666,0,0,0-1.206,3.835,6.246,6.246,0,0,0,2.864,5.446,6.607,6.607,0,0,0,8.493-.729A6.391,6.391,0,0,0,833.837,1833.2Z" transform="translate(17.025 2.516)"/><path class="a" d="M849.752,1848.356h-6.783v-39.749h6.783Z" transform="translate(23.622 1.226)"/><path class="a" d="M858.849,1815.782a3.97,3.97,0,0,1-1.156,2.89,3.852,3.852,0,0,1-2.864,1.183,4.035,4.035,0,0,1-4.071-4.073,3.851,3.851,0,0,1,1.18-2.863,3.979,3.979,0,0,1,2.89-1.156,4.03,4.03,0,0,1,4.02,4.019Zm-.6,31.861h-6.784v-26.083h6.784Z" transform="translate(25.38 0.712)"/><path class="a" d="M880.733,1819.757l-10.654,19.6h7.888v6.584h-19.3l10.909-19.75h-9.042v-6.433Z" transform="translate(27.165 2.516)"/><path class="a" d="M910.252,1845.839h-7.213l-1.424-3.922a13.415,13.415,0,0,1-23.674-8.691,13.318,13.318,0,0,1,8.843-12.615,13.565,13.565,0,0,1,4.623-.854,13.036,13.036,0,0,1,7.714,2.439,13.263,13.263,0,0,1,4.9,6.457ZM898.041,1833.2a6.294,6.294,0,0,0-2.863-5.5,6.5,6.5,0,0,0-3.82-1.162,6.173,6.173,0,0,0-5.427,2.825,6.666,6.666,0,0,0-1.206,3.835,6.244,6.244,0,0,0,2.866,5.446,6.605,6.605,0,0,0,8.492-.729A6.391,6.391,0,0,0,898.041,1833.2Z" transform="translate(31.515 2.516)"/><path class="a" d="M934.058,1835.658a13.443,13.443,0,1,1-26.885.01,12.872,12.872,0,0,1,3.92-9.507,13.057,13.057,0,0,1,9.548-3.888,13.414,13.414,0,0,1,6.632,1.71v-15.376h6.785Zm-6.785.01a6.68,6.68,0,0,0-6.632-6.61,6.492,6.492,0,0,0-4.724,1.93,6.313,6.313,0,0,0-1.96,4.68,6.658,6.658,0,1,0,13.316,0Z" transform="translate(38.112 0)"/><path class="a" d="M958.821,1833.151a13.442,13.442,0,1,1-26.884,0,12.872,12.872,0,0,1,3.92-9.507,13.636,13.636,0,0,1,19.07,0A12.919,12.919,0,0,1,958.821,1833.151Zm-6.784,0a6.682,6.682,0,0,0-6.632-6.61,6.5,6.5,0,0,0-4.725,1.93,6.316,6.316,0,0,0-1.959,4.68,6.658,6.658,0,1,0,13.316,0Z" transform="translate(43.701 2.516)"/><path class="a" d="M977.153,1838.13a6.753,6.753,0,0,1-1.608,4.384q-3.217,3.927-9.146,3.778a16.343,16.343,0,0,1-5.152-1.057,14.4,14.4,0,0,1-4.547-2.51l3.769-4.874a8.329,8.329,0,0,0,5.779,2.562h.151a5.458,5.458,0,0,0,2.261-.452,1.88,1.88,0,0,0,1.308-1.71v-.2a2.065,2.065,0,0,0-1.559-1.657q-.553-.1-2.362-.452a20.287,20.287,0,0,1-3.819-1.106,6.948,6.948,0,0,1-4.573-6.885q0-4.723,4.674-7.086a10.17,10.17,0,0,1,4.474-1.107,15.579,15.579,0,0,1,5.225.854,9.09,9.09,0,0,1,4.424,2.765l-4.524,4.071a5.264,5.264,0,0,0-3.819-1.811q-3.216,0-3.216,2.117v.1q0,1.009,2.613,1.714.2.049,3.317.653,6.332,1.212,6.332,7.759Z" transform="translate(49.289 2.516)"/></g></svg>