<svg xmlns="http://www.w3.org/2000/svg" width="257.717" height="202.252" viewBox="0 0 257.717 202.252"><defs><style>.a{fill:#fe5403;}.b{fill:#333;}.c{fill:#fff;}.d{fill:#30c0b2;}</style></defs><g transform="translate(139.599 -3421.669)"><rect class="a" width="146.633" height="45.762" rx="22.881" transform="translate(-78.693 3421.669)"/><g transform="translate(-139.599 3422.139)"><path class="b" d="M-122.165,3460.17h-17.29v-37.065h6.325v31.583h10.965Z" transform="translate(139.502 -3423.105)"/><path class="b" d="M-46.5,3486.351h-6.727l-1.327-3.657a12,12,0,0,1-9.561,4.407A12.045,12.045,0,0,1-73,3483.446a12.1,12.1,0,0,1-3.632-8.856,12.244,12.244,0,0,1,2.249-7.193,12.24,12.24,0,0,1,6-4.569,12.638,12.638,0,0,1,4.311-.8,12.16,12.16,0,0,1,7.193,2.273,12.375,12.375,0,0,1,4.569,6.021Zm-11.387-11.785a5.872,5.872,0,0,0-2.671-5.126,6.057,6.057,0,0,0-3.561-1.082,5.752,5.752,0,0,0-5.061,2.634,6.209,6.209,0,0,0-1.125,3.574,5.828,5.828,0,0,0,2.671,5.08,6.081,6.081,0,0,0,3.514,1.129,6.029,6.029,0,0,0,4.4-1.81A5.959,5.959,0,0,0-57.888,3474.566Z" transform="translate(97.248 -3449.286)"/><path class="c" d="M113.2,3474.542a12.558,12.558,0,1,1-25.116,0v-12.511h6.325v12.511a6.03,6.03,0,0,0,1.811,4.4,5.96,5.96,0,0,0,4.4,1.827,6.252,6.252,0,0,0,6.256-6.232v-12.511H113.2Z" transform="translate(-13.539 -3449.286)"/><path class="c" d="M199.787,3486.351h-6.326v-11.824a5.917,5.917,0,0,0-1.835-4.346,5.989,5.989,0,0,0-4.374-1.823,6.088,6.088,0,0,0-4.422,1.8,5.892,5.892,0,0,0-1.834,4.37v11.824h-6.325v-11.833a12,12,0,0,1,3.655-8.862,12.746,12.746,0,0,1,17.806,0,12,12,0,0,1,3.655,8.862Z" transform="translate(-71.772 -3449.286)"/><path class="c" d="M266.793,3437.874a3.705,3.705,0,0,1-1.078,2.695,3.589,3.589,0,0,1-2.671,1.1,3.76,3.76,0,0,1-3.8-3.8,3.588,3.588,0,0,1,1.1-2.671,3.706,3.706,0,0,1,2.694-1.078,3.759,3.759,0,0,1,3.749,3.749Zm-.562,29.708h-6.325v-24.32h6.325Z" transform="translate(-128.657 -3430.517)"/><path class="c" d="M311.674,3483.539a12.515,12.515,0,1,1-.328-18.293l-3.8,5.079a5.951,5.951,0,0,0-4.545-1.967,6.054,6.054,0,0,0-4.4,1.8,5.891,5.891,0,0,0-1.828,4.364,6.227,6.227,0,0,0,6.232,6.209,5.818,5.818,0,0,0,4.639-2.155Z" transform="translate(-149.64 -3449.286)"/><path class="c" d="M395.137,3486.351H388.41l-1.326-3.657a12.51,12.51,0,0,1-22.076-8.1,12.418,12.418,0,0,1,8.247-11.762,12.64,12.64,0,0,1,4.311-.8,12.16,12.16,0,0,1,7.193,2.273,12.376,12.376,0,0,1,4.569,6.021Zm-11.387-11.785a5.872,5.872,0,0,0-2.671-5.126,6.058,6.058,0,0,0-3.561-1.082,5.752,5.752,0,0,0-5.061,2.634,6.209,6.209,0,0,0-1.125,3.574,5.828,5.828,0,0,0,2.671,5.08,6.164,6.164,0,0,0,7.919-.682A5.959,5.959,0,0,0,383.75,3474.566Z" transform="translate(-199.787 -3449.286)"/><path class="b" d="M-118.228,3637.539a12.083,12.083,0,0,1-8.669,3.514,12.144,12.144,0,0,1-8.926-3.624,12.1,12.1,0,0,1-3.631-8.91,12,12,0,0,1,3.655-8.863,12.169,12.169,0,0,1,8.9-3.625,12.051,12.051,0,0,1,8.341,3.215l-3.8,5.079a5.95,5.95,0,0,0-4.545-1.968,6.055,6.055,0,0,0-4.4,1.8,5.892,5.892,0,0,0-1.828,4.364,5.972,5.972,0,0,0,1.828,4.389,6.013,6.013,0,0,0,4.4,1.82,5.817,5.817,0,0,0,4.639-2.156Z" transform="translate(139.502 -3552.863)"/><path class="b" d="M-39.969,3628.519a12.125,12.125,0,0,1-3.631,8.887,12.053,12.053,0,0,1-8.88,3.647,12.144,12.144,0,0,1-8.926-3.624,12.1,12.1,0,0,1-3.631-8.91,12,12,0,0,1,3.655-8.863,12.169,12.169,0,0,1,8.9-3.625,12.093,12.093,0,0,1,8.88,3.625A12.044,12.044,0,0,1-39.969,3628.519Zm-6.326,0a5.916,5.916,0,0,0-1.827-4.341,5.96,5.96,0,0,0-4.358-1.821,6.055,6.055,0,0,0-4.4,1.8,5.892,5.892,0,0,0-1.828,4.364,5.972,5.972,0,0,0,1.828,4.389,6.013,6.013,0,0,0,4.4,1.82,5.937,5.937,0,0,0,4.381-1.82A6.011,6.011,0,0,0-46.295,3628.519Z" transform="translate(89.451 -3552.863)"/><path class="b" d="M64.466,3640.351H58.14v-11.824a6.151,6.151,0,0,0-6.185-6.169,5.866,5.866,0,0,0-5.295,2.945v15.049H40.334v-11.824a5.914,5.914,0,0,0-1.835-4.346,5.988,5.988,0,0,0-4.374-1.823,6.087,6.087,0,0,0-4.422,1.8,5.892,5.892,0,0,0-1.834,4.37v11.824H21.544v-11.833a12,12,0,0,1,3.655-8.862,12.17,12.17,0,0,1,8.9-3.625,12.141,12.141,0,0,1,8.9,3.7,12.65,12.65,0,0,1,17.806-.077,12,12,0,0,1,3.655,8.862Z" transform="translate(31.218 -3552.863)"/><path class="b" d="M187.623,3628.543a12.558,12.558,0,1,1-25.116,0v-12.511h6.325v12.511a6.03,6.03,0,0,0,1.811,4.4,5.959,5.959,0,0,0,4.4,1.827,6.251,6.251,0,0,0,6.255-6.231v-12.511h6.326Z" transform="translate(-63.59 -3552.863)"/><path class="b" d="M274.205,3640.351h-6.326v-11.824a5.915,5.915,0,0,0-1.835-4.346,5.988,5.988,0,0,0-4.374-1.823,6.087,6.087,0,0,0-4.422,1.8,5.892,5.892,0,0,0-1.834,4.37v11.824h-6.325v-11.833a12,12,0,0,1,3.655-8.862,12.746,12.746,0,0,1,17.806,0,12,12,0,0,1,3.655,8.862Z" transform="translate(-121.824 -3552.863)"/><path class="b" d="M341.211,3591.874a3.7,3.7,0,0,1-1.078,2.695,3.589,3.589,0,0,1-2.671,1.1,3.76,3.76,0,0,1-3.8-3.8,3.587,3.587,0,0,1,1.1-2.671,3.706,3.706,0,0,1,2.694-1.078,3.759,3.759,0,0,1,3.749,3.748Zm-.562,29.708h-6.325v-24.32h6.325Z" transform="translate(-178.709 -3534.094)"/><path class="b" d="M389.934,3602.331a12.535,12.535,0,1,1-25.069.008,12,12,0,0,1,3.655-8.863,12.17,12.17,0,0,1,8.9-3.625,12.5,12.5,0,0,1,6.185,1.594V3577.1h6.326Zm-6.326.008a6.229,6.229,0,0,0-6.185-6.162,6.055,6.055,0,0,0-4.4,1.8,5.891,5.891,0,0,0-1.828,4.364,6.209,6.209,0,1,0,12.417,0Z" transform="translate(-199.692 -3526.682)"/><path class="b" d="M481.575,3640.351h-6.727l-1.327-3.657a12.51,12.51,0,0,1-22.076-8.1,12.418,12.418,0,0,1,8.247-11.761,12.633,12.633,0,0,1,4.311-.8,12.158,12.158,0,0,1,7.193,2.273,12.376,12.376,0,0,1,4.569,6.021Zm-11.387-11.785a5.872,5.872,0,0,0-2.671-5.127,6.058,6.058,0,0,0-3.561-1.082,5.752,5.752,0,0,0-5.061,2.634,6.208,6.208,0,0,0-1.124,3.574,5.828,5.828,0,0,0,2.671,5.08,6.163,6.163,0,0,0,7.919-.682A5.959,5.959,0,0,0,470.188,3628.566Z" transform="translate(-257.923 -3552.863)"/><path class="b" d="M578.552,3602.331a12.535,12.535,0,1,1-25.069.008,12,12,0,0,1,3.655-8.863,12.17,12.17,0,0,1,8.9-3.625,12.5,12.5,0,0,1,6.185,1.594V3577.1h6.326Zm-6.326.008a6.229,6.229,0,0,0-6.185-6.162,6.055,6.055,0,0,0-4.4,1.8,5.891,5.891,0,0,0-1.828,4.364,6.209,6.209,0,1,0,12.418,0Z" transform="translate(-326.552 -3526.682)"/><path class="b" d="M-114.339,3768.17h-6.326v-11.824A5.915,5.915,0,0,0-122.5,3752a5.988,5.988,0,0,0-4.374-1.823,6.087,6.087,0,0,0-4.422,1.8,5.891,5.891,0,0,0-1.834,4.37v11.824h-6.325V3731.1h6.325v14.339a12.763,12.763,0,0,1,6.232-1.593,12.169,12.169,0,0,1,8.9,3.625,12,12,0,0,1,3.655,8.862Z" transform="translate(139.502 -3630.259)"/><path class="b" d="M-47.333,3745.874a3.705,3.705,0,0,1-1.078,2.695,3.589,3.589,0,0,1-2.671,1.1,3.665,3.665,0,0,1-2.694-1.1,3.663,3.663,0,0,1-1.1-2.695,3.588,3.588,0,0,1,1.1-2.671,3.708,3.708,0,0,1,2.694-1.077,3.612,3.612,0,0,1,2.648,1.1A3.613,3.613,0,0,1-47.333,3745.874Zm-.563,29.708h-6.325v-24.319H-47.9Z" transform="translate(82.617 -3637.67)"/><path class="b" d="M-4.751,3787.158a6.293,6.293,0,0,1-1.5,4.087q-3,3.663-8.528,3.523a15.233,15.233,0,0,1-4.8-.984,13.478,13.478,0,0,1-4.241-2.343l3.514-4.546a7.764,7.764,0,0,0,5.389,2.39h.141a5.086,5.086,0,0,0,2.108-.422,1.752,1.752,0,0,0,1.218-1.594v-.187a1.921,1.921,0,0,0-1.452-1.547q-.516-.093-2.2-.421a18.929,18.929,0,0,1-3.561-1.031,6.479,6.479,0,0,1-4.264-6.42q0-4.4,4.357-6.607a9.453,9.453,0,0,1,4.17-1.031,14.474,14.474,0,0,1,4.873.8,8.462,8.462,0,0,1,4.124,2.577l-4.217,3.8a4.911,4.911,0,0,0-3.561-1.687q-3,0-3,1.973v.094q0,.94,2.437,1.6.187.047,3.093.611,5.9,1.127,5.9,7.233Z" transform="translate(61.73 -3656.435)"/><path class="b" d="M69.511,3782.542A12.4,12.4,0,0,1,57,3795.053a12.306,12.306,0,0,1-6.232-1.64V3807.8H44.442v-25.257A12.362,12.362,0,0,1,57,3770.031a12.4,12.4,0,0,1,12.511,12.511Zm-6.326,0A6.159,6.159,0,0,0,57,3776.357a6.043,6.043,0,0,0-4.4,1.8,6.165,6.165,0,0,0,0,8.763,6.041,6.041,0,0,0,4.4,1.8,6.159,6.159,0,0,0,6.185-6.186Z" transform="translate(15.817 -3656.44)"/><path class="b" d="M161.153,3794.351h-6.727l-1.327-3.657a12.51,12.51,0,0,1-22.076-8.1,12.418,12.418,0,0,1,8.247-11.761,12.632,12.632,0,0,1,4.311-.8,12.159,12.159,0,0,1,7.193,2.273,12.377,12.377,0,0,1,4.569,6.021Zm-11.386-11.785a5.872,5.872,0,0,0-2.671-5.126,6.057,6.057,0,0,0-3.561-1.082,5.753,5.753,0,0,0-5.061,2.634,6.208,6.208,0,0,0-1.124,3.574,5.828,5.828,0,0,0,2.671,5.08,6.163,6.163,0,0,0,7.919-.682A5.959,5.959,0,0,0,149.766,3782.566Z" transform="translate(-42.415 -3656.44)"/><path class="b" d="M258.176,3794.351H251.85v-11.824a5.915,5.915,0,0,0-1.835-4.346,5.99,5.99,0,0,0-4.374-1.823,6.088,6.088,0,0,0-4.421,1.8,5.892,5.892,0,0,0-1.834,4.37v11.824H233.06v-11.833a12,12,0,0,1,3.655-8.862,12.746,12.746,0,0,1,17.806,0,12,12,0,0,1,3.655,8.862Z" transform="translate(-111.043 -3656.44)"/><path class="b" d="M349.915,3794.351h-6.727l-1.327-3.657a12.51,12.51,0,0,1-22.076-8.1,12.417,12.417,0,0,1,8.247-11.761,12.632,12.632,0,0,1,4.311-.8,12.158,12.158,0,0,1,7.193,2.273,12.374,12.374,0,0,1,4.569,6.021Zm-11.387-11.785a5.872,5.872,0,0,0-2.671-5.126,6.057,6.057,0,0,0-3.561-1.082,5.752,5.752,0,0,0-5.061,2.634,6.209,6.209,0,0,0-1.125,3.574,5.829,5.829,0,0,0,2.671,5.08,6.163,6.163,0,0,0,7.919-.682A5.959,5.959,0,0,0,338.528,3782.566Z" transform="translate(-169.372 -3656.44)"/><path class="b" d="M509.574,3756.33a12.535,12.535,0,1,1-25.069.008,12,12,0,0,1,3.655-8.863,12.168,12.168,0,0,1,8.9-3.625,12.5,12.5,0,0,1,6.185,1.593V3731.1h6.326Zm-6.326.008a6.228,6.228,0,0,0-6.185-6.161,6.054,6.054,0,0,0-4.4,1.8,5.891,5.891,0,0,0-1.828,4.364,6.209,6.209,0,1,0,12.418,0Z" transform="translate(-280.159 -3630.259)"/><path class="b" d="M596.011,3782.5a12.543,12.543,0,0,1-.141,1.869H577.549a6,6,0,0,0,2.249,3.163,6.131,6.131,0,0,0,3.7,1.2,5.948,5.948,0,0,0,4.733-2.2l3.842,5.108a12.538,12.538,0,0,1-17.478-17.977,12.725,12.725,0,0,1,17.783-.005A12.022,12.022,0,0,1,596.011,3782.5Zm-7.075-2.864a6.183,6.183,0,0,0-10.918,0Z" transform="translate(-338.294 -3656.44)"/><path class="b" d="M-120.528,3941.158a6.292,6.292,0,0,1-1.5,4.086q-3,3.663-8.528,3.523a15.232,15.232,0,0,1-4.8-.984,13.475,13.475,0,0,1-4.241-2.343l3.515-4.545a7.765,7.765,0,0,0,5.389,2.39h.141a5.088,5.088,0,0,0,2.108-.421,1.752,1.752,0,0,0,1.218-1.594v-.187a1.921,1.921,0,0,0-1.453-1.546q-.516-.093-2.2-.422a18.925,18.925,0,0,1-3.561-1.031,6.479,6.479,0,0,1-4.264-6.42q0-4.4,4.358-6.606a9.453,9.453,0,0,1,4.17-1.031,14.478,14.478,0,0,1,4.873.8,8.457,8.457,0,0,1,4.123,2.577l-4.217,3.8a4.911,4.911,0,0,0-3.561-1.687q-3,0-3,1.973v.094q0,.94,2.437,1.6.187.047,3.093.611,5.9,1.128,5.9,7.233Z" transform="translate(139.599 -3760.011)"/><path class="b" d="M-58.776,3922.17a12.164,12.164,0,0,1-8.9-3.627,12.015,12.015,0,0,1-3.655-8.868v-24.57h6.325v12.746h6.232v5.388h-6.232v6.42a5.926,5.926,0,0,0,1.828,4.381,6.042,6.042,0,0,0,4.4,1.8Z" transform="translate(93.686 -3733.836)"/><path class="b" d="M7.023,3948.351H.3l-1.327-3.657a12,12,0,0,1-9.561,4.407,12.046,12.046,0,0,1-8.883-3.655,12.1,12.1,0,0,1-3.632-8.856,12.243,12.243,0,0,1,2.249-7.193,12.236,12.236,0,0,1,6-4.569,12.633,12.633,0,0,1,4.311-.8,12.159,12.159,0,0,1,7.193,2.273,12.38,12.38,0,0,1,4.569,6.021Zm-11.386-11.785a5.871,5.871,0,0,0-2.671-5.126,6.057,6.057,0,0,0-3.561-1.082,5.752,5.752,0,0,0-5.061,2.634,6.207,6.207,0,0,0-1.124,3.574,5.828,5.828,0,0,0,2.671,5.08,6.082,6.082,0,0,0,3.514,1.128,6.029,6.029,0,0,0,4.4-1.81A5.959,5.959,0,0,0-4.363,3936.566Z" transform="translate(61.249 -3760.017)"/><path class="b" d="M91.49,3930.345a6.047,6.047,0,0,0-4.4,1.8,5.91,5.91,0,0,0-1.828,4.373v11.833H78.932v-11.833a12,12,0,0,1,3.655-8.862,12.168,12.168,0,0,1,8.9-3.625Z" transform="translate(-7.38 -3760.017)"/><path class="b" d="M139.431,3922.17a12.165,12.165,0,0,1-8.9-3.627,12.015,12.015,0,0,1-3.655-8.868v-24.57H133.2v12.746h6.232v5.388H133.2v6.42a5.926,5.926,0,0,0,1.828,4.381,6.043,6.043,0,0,0,4.4,1.8Z" transform="translate(-39.624 -3733.836)"/><path class="b" d="M200.074,3936.542a12.558,12.558,0,1,1-25.116,0v-12.511h6.326v12.511a6.029,6.029,0,0,0,1.811,4.4,5.959,5.959,0,0,0,4.4,1.827,6.252,6.252,0,0,0,6.256-6.232v-12.511h6.326Z" transform="translate(-71.965 -3760.017)"/><path class="b" d="M286.609,3936.542a12.4,12.4,0,0,1-12.511,12.511,12.309,12.309,0,0,1-6.232-1.64V3961.8H261.54v-25.257a12.535,12.535,0,1,1,25.069,0Zm-6.326,0a6.159,6.159,0,0,0-6.185-6.185,6.043,6.043,0,0,0-4.4,1.8,6.165,6.165,0,0,0,0,8.762,6.04,6.04,0,0,0,4.4,1.8,6.16,6.16,0,0,0,6.185-6.186Z" transform="translate(-130.198 -3760.017)"/><path class="b" d="M366.905,3941.158a6.292,6.292,0,0,1-1.5,4.086q-3,3.663-8.528,3.523a15.235,15.235,0,0,1-4.8-.984,13.473,13.473,0,0,1-4.241-2.343l3.514-4.545a7.766,7.766,0,0,0,5.389,2.39h.141a5.086,5.086,0,0,0,2.108-.421,1.752,1.752,0,0,0,1.218-1.594v-.187a1.92,1.92,0,0,0-1.452-1.546q-.516-.093-2.2-.422a18.911,18.911,0,0,1-3.561-1.031,6.478,6.478,0,0,1-4.264-6.42q0-4.4,4.357-6.606a9.453,9.453,0,0,1,4.171-1.031,14.474,14.474,0,0,1,4.873.8,8.457,8.457,0,0,1,4.124,2.577l-4.217,3.8a4.911,4.911,0,0,0-3.561-1.687q-3,0-3,1.973v.094q0,.94,2.437,1.6.186.047,3.093.611,5.9,1.128,5.9,7.233Z" transform="translate(-188.237 -3760.011)"/></g><g transform="translate(-51.075 3427.248)"><path class="c" d="M137.423,3438.707l-.148,4.352-6.507,1.583.136-4.349Z" transform="translate(-130.768 -3438.707)"/></g><path class="d" d="M465.611,3918.563a13.946,13.946,0,1,0,13.946,13.946A13.933,13.933,0,0,0,465.611,3918.563Zm6.62,14.827h-4.015v5.6a.947.947,0,0,1-.951.951h-3.345a.947.947,0,0,1-.952-.951v-5.6h-3.98c-.7,0-1.127-.458-.774-.845l6.621-7.149a1.045,1.045,0,0,1,1.549,0l6.621,7.149C473.359,3932.932,472.937,3933.39,472.232,3933.39Z" transform="translate(-397.67 -334.2)"/></g></svg>